# xmcd
#
# Track frame offsets:
#	150
#	20345
#	40855
#	63298
#	81813
#	102278
#	123808
#	144154
#	172587
#	189526
#	227591
#	275604
#	296958
#
# Disc length: 4026 seconds
#
# Revision: 0
# Processed by: cddbd v1.5.2PL0 Copyright (c) Steve Scherf et al.
# Submitted via: audiograbber 1.83.01
#
DISCID=a70fb80d
DTITLE=V. A. - Blues Garage
DYEAR=1998
DGENRE=Blues
TTITLE0=junior wells  - everybody´s gettin them som
TTITLE1=buddy guy - feels like rain
TTITLE2=paul rogers - muddy water blues
TTITLE3=blues company - riot in cellblock # 9
TTITLE4=john lee hooker - cuttin´ out
TTITLE5=marla glenn - travel
TTITLE6=buddy guy - damn right, i´ve got the blues
TTITLE7=allman brother band - come one in my kitchen
TTITLE8=eric burdon - sixteen tons
TTITLE9=georg thorogood - one bourbon, one scotch, one beer
TTITLE10=eric burdon - working live
TTITLE11=van morrison - ain´t that loving you baby
TTITLE12=louise hofsteen - the only thing i got
EXTD=
EXTT0=
EXTT1=
EXTT2=
EXTT3=
EXTT4=
EXTT5=
EXTT6=
EXTT7=
EXTT8=
EXTT9=
EXTT10=
EXTT11=
EXTT12=
PLAYORDER=
